0
SECTION
2
HEADER
9
$INSUNITS
70
4
9
$ACADVER
1
AC1014
9
$HANDSEED
5
FFFF
0
ENDSEC
0
SECTION
2
TABLES
0
TABLE
2
VPORT
5
8
100
AcDbSymbolTable
0
ENDTAB
0
TABLE
2
LTYPE
5
5
100
AcDbSymbolTable
0
LTYPE
5
14
100
AcDbSymbolTableRecord
100
AcDbLinetypeTableRecord
2
BYBLOCK
70
0
0
LTYPE
5
15
100
AcDbSymbolTableRecord
100
AcDbLinetypeTableRecord
2
BYLAYER
70
0
0
ENDTAB
0
TABLE
2
LAYER
5
2
100
AcDbSymbolTable
70
2
0
LAYER
5
50
100
AcDbSymbolTableRecord
100
AcDbLayerTableRecord
2
0
70
0
6
CONTINUOUS
0
ENDTAB
0
TABLE
2
STYLE
5
3
100
AcDbSymbolTable
70
1
0
STYLE
5
11
100
AcDbSymbolTableRecord
100
AcDbTextStyleTableRecord
2
STANDARD
70
0
0
ENDTAB
0
TABLE
2
VIEW
5
6
100
AcDbSymbolTable
70
0
0
ENDTAB
0
TABLE
2
UCS
5
7
100
AcDbSymbolTable
70
0
0
ENDTAB
0
TABLE
2
APPID
5
9
100
AcDbSymbolTable
70
2
0
APPID
5
12
100
AcDbSymbolTableRecord
100
AcDbRegAppTableRecord
2
ACAD
70
0
0
ENDTAB
0
TABLE
2
DIMSTYLE
5
A
100
AcDbSymbolTable
70
1
0
ENDTAB
0
TABLE
2
BLOCK_RECORD
5
1
100
AcDbSymbolTable
70
1
0
BLOCK_RECORD
5
1F
100
AcDbSymbolTableRecord
100
AcDbBlockTableRecord
2
*MODEL_SPACE
0
BLOCK_RECORD
5
1B
100
AcDbSymbolTableRecord
100
AcDbBlockTableRecord
2
*PAPER_SPACE
0
ENDTAB
0
ENDSEC
0
SECTION
2
BLOCKS
0
BLOCK
5
20
100
AcDbEntity
100
AcDbBlockBegin
2
*MODEL_SPACE
0
ENDBLK
5
21
100
AcDbEntity
100
AcDbBlockEnd
0
BLOCK
5
1C
100
AcDbEntity
100
AcDbBlockBegin
2
*PAPER_SPACE
0
ENDBLK
5
1D
100
AcDbEntity
100
AcDbBlockEnd
0
ENDSEC
0
SECTION
2
ENTITIES
0
LINE
5
100
100
AcDbEntity
8
0
100
AcDbLine
10
23.000000000000007
20
3.0000000000000027
30
0
11
23.000000000000007
21
2.2204460492503131e-15
31
0
0
LINE
5
101
100
AcDbEntity
8
0
100
AcDbLine
10
3.0000000000000071
20
13.000000000000004
30
0
11
0
21
13.000000000000004
31
0
0
LINE
5
102
100
AcDbEntity
8
0
100
AcDbLine
10
23.000000000000007
20
2.2204460492503131e-15
30
0
11
43.000000000000007
21
2.2204460492503131e-15
31
0
0
LINE
5
103
100
AcDbEntity
8
0
100
AcDbLine
10
0
20
13.000000000000004
30
0
11
0
21
23.000000000000004
31
0
0
LINE
5
104
100
AcDbEntity
8
0
100
AcDbLine
10
3.0000000000000071
20
72.999999999999986
30
0
11
3.0000000000000071
21
62.999999999999986
31
0
0
LINE
5
105
100
AcDbEntity
8
0
100
AcDbLine
10
43.000000000000007
20
72.999999999999986
30
0
11
93
21
72.999999999999986
31
0
0
LINE
5
106
100
AcDbEntity
8
0
100
AcDbLine
10
93
20
72.999999999999986
30
0
11
93
21
76
31
0
0
LINE
5
107
100
AcDbEntity
8
0
100
AcDbLine
10
133
20
72.999999999999986
30
0
11
133
21
62.999999999999986
31
0
0
LINE
5
108
100
AcDbEntity
8
0
100
AcDbLine
10
113
20
76
30
0
11
113
21
72.999999999999986
31
0
0
LINE
5
109
100
AcDbEntity
8
0
100
AcDbLine
10
3.0000000000000071
20
3.0000000000000027
30
0
11
23.000000000000007
21
3.0000000000000027
31
0
0
LINE
5
110
100
AcDbEntity
8
0
100
AcDbLine
10
43.000000000000007
20
2.2204460492503131e-15
30
0
11
43.000000000000007
21
3.0000000000000027
31
0
0
LINE
5
111
100
AcDbEntity
8
0
100
AcDbLine
10
3.0000000000000071
20
62.999999999999986
30
0
11
6.6613381477509392e-15
21
62.999999999999986
31
0
0
LINE
5
112
100
AcDbEntity
8
0
100
AcDbLine
10
133
20
13.000000000000004
30
0
11
136
21
13.000000000000004
31
0
0
LINE
5
113
100
AcDbEntity
8
0
100
AcDbLine
10
133
20
53.000000000000007
30
0
11
133
21
23.000000000000004
31
0
0
LINE
5
114
100
AcDbEntity
8
0
100
AcDbLine
10
113
20
2.2204460492503131e-15
30
0
11
93
21
2.2204460492503131e-15
31
0
0
LINE
5
115
100
AcDbEntity
8
0
100
AcDbLine
10
133
20
62.999999999999986
30
0
11
136
21
62.999999999999986
31
0
0
LINE
5
116
100
AcDbEntity
8
0
100
AcDbLine
10
136
20
23.000000000000004
30
0
11
133
21
23.000000000000004
31
0
0
CIRCLE
5
117
100
AcDbEntity
8
0
100
AcDbCircle
10
101.333
20
38.000000000000007
30
0
40
19
210
0
220
0
230
1
0
LINE
5
118
100
AcDbEntity
8
0
100
AcDbLine
10
133
20
53.000000000000007
30
0
11
136
21
53.000000000000007
31
0
0
LINE
5
119
100
AcDbEntity
8
0
100
AcDbLine
10
93
20
2.2204460492503131e-15
30
0
11
93
21
3.0000000000000027
31
0
0
LINE
5
120
100
AcDbEntity
8
0
100
AcDbLine
10
133
20
13.000000000000004
30
0
11
133
21
3.0000000000000027
31
0
0
LINE
5
121
100
AcDbEntity
8
0
100
AcDbLine
10
133
20
72.999999999999986
30
0
11
113
21
72.999999999999986
31
0
0
LINE
5
122
100
AcDbEntity
8
0
100
AcDbLine
10
93
20
76
30
0
11
113
21
76
31
0
0
LINE
5
123
100
AcDbEntity
8
0
100
AcDbLine
10
133
20
3.0000000000000027
30
0
11
113
21
3.0000000000000027
31
0
0
LINE
5
124
100
AcDbEntity
8
0
100
AcDbLine
10
113
20
3.0000000000000027
30
0
11
113
21
2.2204460492503131e-15
31
0
0
LINE
5
125
100
AcDbEntity
8
0
100
AcDbLine
10
136
20
13.000000000000004
30
0
11
136
21
23.000000000000004
31
0
0
LINE
5
126
100
AcDbEntity
8
0
100
AcDbLine
10
43.000000000000007
20
3.0000000000000027
30
0
11
93
21
3.0000000000000027
31
0
0
LINE
5
127
100
AcDbEntity
8
0
100
AcDbLine
10
136
20
62.999999999999986
30
0
11
136
21
53.000000000000007
31
0
0
LINE
5
128
100
AcDbEntity
8
0
100
AcDbLine
10
43.000000000000007
20
76
30
0
11
43.000000000000007
21
72.999999999999986
31
0
0
LINE
5
129
100
AcDbEntity
8
0
100
AcDbLine
10
3.0000000000000071
20
53.000000000000007
30
0
11
3.0000000000000071
21
23.000000000000004
31
0
0
LINE
5
130
100
AcDbEntity
8
0
100
AcDbLine
10
23.000000000000007
20
72.999999999999986
30
0
11
23.000000000000007
21
76
31
0
0
LINE
5
131
100
AcDbEntity
8
0
100
AcDbLine
10
23.000000000000007
20
76
30
0
11
43.000000000000007
21
76
31
0
0
LINE
5
132
100
AcDbEntity
8
0
100
AcDbLine
10
0
20
23.000000000000004
30
0
11
3.0000000000000071
21
23.000000000000004
31
0
0
LINE
5
133
100
AcDbEntity
8
0
100
AcDbLine
10
3.0000000000000071
20
53.000000000000007
30
0
11
0
21
53.000000000000007
31
0
0
LINE
5
134
100
AcDbEntity
8
0
100
AcDbLine
10
3.0000000000000071
20
72.999999999999986
30
0
11
23.000000000000007
21
72.999999999999986
31
0
0
LINE
5
135
100
AcDbEntity
8
0
100
AcDbLine
10
6.6613381477509392e-15
20
62.999999999999986
30
0
11
0
21
53.000000000000007
31
0
0
CIRCLE
5
136
100
AcDbEntity
8
0
100
AcDbCircle
10
34.667000000000016
20
38
30
0
40
19.000000000000004
210
0
220
0
230
1
0
LINE
5
137
100
AcDbEntity
8
0
100
AcDbLine
10
3.0000000000000071
20
13.000000000000004
30
0
11
3.0000000000000071
21
3.0000000000000027
31
0
0
LINE
5
138
100
AcDbEntity
8
0
100
AcDbLine
10
147
20
56
30
0
11
170
21
56
31
0
0
LINE
5
139
100
AcDbEntity
8
0
100
AcDbLine
10
150
20
23
30
0
11
147
21
23
31
0
0
LINE
5
140
100
AcDbEntity
8
0
100
AcDbLine
10
147
20
43
30
0
11
150
21
43
31
0
0
LINE
5
141
100
AcDbEntity
8
0
100
AcDbLine
10
147
20
-2.2204460492503131e-15
30
0
11
170
21
-2.2204460492503131e-15
31
0
0
LINE
5
142
100
AcDbEntity
8
0
100
AcDbLine
10
147
20
23
30
0
11
147
21
33
31
0
0
LINE
5
143
100
AcDbEntity
8
0
100
AcDbLine
10
190
20
53
30
0
11
190
21
56
31
0
0
LINE
5
144
100
AcDbEntity
8
0
100
AcDbLine
10
170
20
56
30
0
11
170
21
53
31
0
0
LINE
5
145
100
AcDbEntity
8
0
100
AcDbLine
10
147
20
33
30
0
11
149.99999999999997
21
33
31
0
0
LINE
5
146
100
AcDbEntity
8
0
100
AcDbLine
10
147
20
56
30
0
11
147
21
43
31
0
0
LINE
5
147
100
AcDbEntity
8
0
100
AcDbLine
10
190
20
2.9999999999999982
30
0
11
190
21
-2.2204460492503131e-15
31
0
0
LINE
5
148
100
AcDbEntity
8
0
100
AcDbLine
10
147
20
12.999999999999996
30
0
11
150
21
12.999999999999998
31
0
0
LINE
5
149
100
AcDbEntity
8
0
100
AcDbLine
10
190
20
56
30
0
11
240
21
56
31
0
0
LINE
5
150
100
AcDbEntity
8
0
100
AcDbLine
10
170
20
53
30
0
11
190
21
53
31
0
0
LINE
5
151
100
AcDbEntity
8
0
100
AcDbLine
10
150
20
12.999999999999998
30
0
11
150
21
23
31
0
0
LINE
5
152
100
AcDbEntity
8
0
100
AcDbLine
10
149.99999999999997
20
33
30
0
11
150
21
43
31
0
0
LINE
5
153
100
AcDbEntity
8
0
100
AcDbLine
10
147
20
-2.2204460492503131e-15
30
0
11
147
21
12.999999999999996
31
0
0
LINE
5
154
100
AcDbEntity
8
0
100
AcDbLine
10
170
20
-2.2204460492503131e-15
30
0
11
170
21
2.9999999999999982
31
0
0
LINE
5
155
100
AcDbEntity
8
0
100
AcDbLine
10
170
20
2.9999999999999982
30
0
11
190
21
2.9999999999999982
31
0
0
LINE
5
156
100
AcDbEntity
8
0
100
AcDbLine
10
260
20
-2.2204460492503131e-15
30
0
11
283
21
-2.2204460492503131e-15
31
0
0
LINE
5
157
100
AcDbEntity
8
0
100
AcDbLine
10
260
20
2.9999999999999982
30
0
11
260
21
-2.2204460492503131e-15
31
0
0
LINE
5
158
100
AcDbEntity
8
0
100
AcDbLine
10
240
20
56
30
0
11
240
21
53
31
0
0
LINE
5
159
100
AcDbEntity
8
0
100
AcDbLine
10
260
20
53
30
0
11
240
21
53
31
0
0
LINE
5
160
100
AcDbEntity
8
0
100
AcDbLine
10
190
20
-2.2204460492503131e-15
30
0
11
240
21
-2.2204460492503131e-15
31
0
0
LINE
5
161
100
AcDbEntity
8
0
100
AcDbLine
10
240
20
-2.2204460492503131e-15
30
0
11
240
21
2.9999999999999982
31
0
0
LINE
5
162
100
AcDbEntity
8
0
100
AcDbLine
10
260
20
53
30
0
11
260
21
56
31
0
0
LINE
5
163
100
AcDbEntity
8
0
100
AcDbLine
10
280
20
23
30
0
11
283
21
23
31
0
0
LINE
5
164
100
AcDbEntity
8
0
100
AcDbLine
10
283
20
43
30
0
11
280
21
43
31
0
0
LINE
5
165
100
AcDbEntity
8
0
100
AcDbLine
10
283
20
56
30
0
11
283
21
43
31
0
0
LINE
5
166
100
AcDbEntity
8
0
100
AcDbLine
10
283
20
23
30
0
11
283
21
33
31
0
0
LINE
5
167
100
AcDbEntity
8
0
100
AcDbLine
10
280
20
33
30
0
11
280
21
43
31
0
0
LINE
5
168
100
AcDbEntity
8
0
100
AcDbLine
10
260
20
56
30
0
11
283
21
56
31
0
0
LINE
5
169
100
AcDbEntity
8
0
100
AcDbLine
10
280
20
12.999999999999998
30
0
11
280
21
23
31
0
0
LINE
5
170
100
AcDbEntity
8
0
100
AcDbLine
10
283
20
33
30
0
11
280
21
33
31
0
0
LINE
5
171
100
AcDbEntity
8
0
100
AcDbLine
10
283
20
12.999999999999996
30
0
11
280
21
12.999999999999998
31
0
0
LINE
5
172
100
AcDbEntity
8
0
100
AcDbLine
10
240
20
2.9999999999999982
30
0
11
260
21
2.9999999999999982
31
0
0
LINE
5
173
100
AcDbEntity
8
0
100
AcDbLine
10
283
20
-2.2204460492503131e-15
30
0
11
283
21
12.999999999999996
31
0
0
LINE
5
174
100
AcDbEntity
8
0
100
AcDbLine
10
135
20
105
30
0
11
135
21
135
31
0
0
LINE
5
175
100
AcDbEntity
8
0
100
AcDbLine
10
138
20
145
30
0
11
138
21
135
31
0
0
LINE
5
176
100
AcDbEntity
8
0
100
AcDbLine
10
1.9999999999999929
20
95
30
0
11
1.9999999999999929
21
105
31
0
0
LINE
5
177
100
AcDbEntity
8
0
100
AcDbLine
10
25
20
157.99999999999997
30
0
11
45
21
157.99999999999997
31
0
0
LINE
5
178
100
AcDbEntity
8
0
100
AcDbLine
10
5
20
85
30
0
11
25
21
85
31
0
0
LINE
5
179
100
AcDbEntity
8
0
100
AcDbLine
10
25
20
82
30
0
11
45
21
82
31
0
0
LINE
5
180
100
AcDbEntity
8
0
100
AcDbLine
10
25
20
85
30
0
11
25
21
82
31
0
0
LINE
5
181
100
AcDbEntity
8
0
100
AcDbLine
10
1.9999999999999929
20
145
30
0
11
1.9999999999999929
21
135
31
0
0
LINE
5
182
100
AcDbEntity
8
0
100
AcDbLine
10
25
20
155
30
0
11
25
21
157.99999999999997
31
0
0
LINE
5
183
100
AcDbEntity
8
0
100
AcDbLine
10
135
20
85
30
0
11
128
21
85
31
0
0
LINE
5
184
100
AcDbEntity
8
0
100
AcDbLine
10
135
20
85
30
0
11
135
21
95
31
0
0
LINE
5
185
100
AcDbEntity
8
0
100
AcDbLine
10
115
20
158
30
0
11
95
21
158
31
0
0
LINE
5
186
100
AcDbEntity
8
0
100
AcDbLine
10
95
20
82
30
0
11
95
21
85
31
0
0
LWPOLYLINE
5
187
100
AcDbEntity
8
0
100
AcDbPolyline
90
4
70
1
43
0.0
10
116.49999999999999
20
141.29999999999998
10
125
20
141.29999999999998
10
125
20
145
10
116.49999999999999
20
145
0
LINE
5
188
100
AcDbEntity
8
0
100
AcDbLine
10
135
20
155
30
0
11
115
21
155
31
0
0
LINE
5
189
100
AcDbEntity
8
0
100
AcDbLine
10
45
20
155
30
0
11
95
21
155
31
0
0
LINE
5
190
100
AcDbEntity
8
0
100
AcDbLine
10
95
20
158
30
0
11
95
21
155
31
0
0
LINE
5
191
100
AcDbEntity
8
0
100
AcDbLine
10
45
20
85
30
0
11
95
21
85
31
0
0
LINE
5
192
100
AcDbEntity
8
0
100
AcDbLine
10
135
20
135
30
0
11
138
21
135
31
0
0
LINE
5
193
100
AcDbEntity
8
0
100
AcDbLine
10
138
20
105
30
0
11
135
21
105
31
0
0
LINE
5
194
100
AcDbEntity
8
0
100
AcDbLine
10
135
20
155
30
0
11
135
21
145
31
0
0
LINE
5
195
100
AcDbEntity
8
0
100
AcDbLine
10
115
20
155
30
0
11
115
21
158
31
0
0
LINE
5
196
100
AcDbEntity
8
0
100
AcDbLine
10
135
20
145
30
0
11
138
21
145
31
0
0
LINE
5
197
100
AcDbEntity
8
0
100
AcDbLine
10
128
20
85
30
0
11
135
21
85
31
0
0
LINE
5
198
100
AcDbEntity
8
0
100
AcDbLine
10
138
20
95
30
0
11
138
21
105
31
0
0
LINE
5
199
100
AcDbEntity
8
0
100
AcDbLine
10
115
20
82
30
0
11
95
21
82
31
0
0
LINE
5
200
100
AcDbEntity
8
0
100
AcDbLine
10
135
20
95
30
0
11
138
21
95
31
0
0
LINE
5
201
100
AcDbEntity
8
0
100
AcDbLine
10
5
20
95
30
0
11
5
21
85
31
0
0
LINE
5
202
100
AcDbEntity
8
0
100
AcDbLine
10
5
20
145
30
0
11
1.9999999999999929
21
145
31
0
0
LINE
5
203
100
AcDbEntity
8
0
100
AcDbLine
10
45
20
157.99999999999997
30
0
11
45
21
155
31
0
0
LINE
5
204
100
AcDbEntity
8
0
100
AcDbLine
10
45
20
82
30
0
11
45
21
85
31
0
0
LINE
5
205
100
AcDbEntity
8
0
100
AcDbLine
10
5
20
135
30
0
11
1.9999999999999929
21
135
31
0
0
LINE
5
206
100
AcDbEntity
8
0
100
AcDbLine
10
5
20
95
30
0
11
1.9999999999999929
21
95
31
0
0
LINE
5
207
100
AcDbEntity
8
0
100
AcDbLine
10
1.9999999999999929
20
105
30
0
11
5
21
105
31
0
0
LINE
5
208
100
AcDbEntity
8
0
100
AcDbLine
10
5
20
155
30
0
11
25
21
155
31
0
0
LINE
5
209
100
AcDbEntity
8
0
100
AcDbLine
10
5
20
105
30
0
11
5
21
135
31
0
0
LINE
5
210
100
AcDbEntity
8
0
100
AcDbLine
10
5
20
155
30
0
11
5
21
145
31
0
0
LINE
5
211
100
AcDbEntity
8
0
100
AcDbLine
10
150
20
85.000000000000014
30
0
11
147
21
85.000000000000014
31
0
0
LINE
5
212
100
AcDbEntity
8
0
100
AcDbLine
10
149.99999999999997
20
95.000000000000014
30
0
11
150
21
105.00000000000001
31
0
0
LINE
5
213
100
AcDbEntity
8
0
100
AcDbLine
10
147
20
95.000000000000014
30
0
11
149.99999999999997
21
95.000000000000014
31
0
0
LINE
5
214
100
AcDbEntity
8
0
100
AcDbLine
10
147
20
85.000000000000014
30
0
11
147
21
95.000000000000014
31
0
0
LINE
5
215
100
AcDbEntity
8
0
100
AcDbLine
10
190
20
65.000000000000014
30
0
11
190
21
62.000000000000021
31
0
0
LINE
5
216
100
AcDbEntity
8
0
100
AcDbLine
10
147
20
62.000000000000021
30
0
11
170
21
62.000000000000021
31
0
0
LINE
5
217
100
AcDbEntity
8
0
100
AcDbLine
10
240
20
62.000000000000021
30
0
11
240
21
65.000000000000014
31
0
0
LINE
5
218
100
AcDbEntity
8
0
100
AcDbLine
10
283
20
118
30
0
11
283
21
105.00000000000001
31
0
0
LINE
5
219
100
AcDbEntity
8
0
100
AcDbLine
10
260
20
115.00000000000001
30
0
11
260
21
118
31
0
0
LINE
5
220
100
AcDbEntity
8
0
100
AcDbLine
10
280
20
85.000000000000014
30
0
11
283
21
85.000000000000014
31
0
0
LINE
5
221
100
AcDbEntity
8
0
100
AcDbLine
10
240
20
65.000000000000014
30
0
11
260
21
65.000000000000014
31
0
0
LINE
5
222
100
AcDbEntity
8
0
100
AcDbLine
10
283
20
95.000000000000014
30
0
11
280
21
95.000000000000014
31
0
0
LINE
5
223
100
AcDbEntity
8
0
100
AcDbLine
10
240
20
118
30
0
11
240
21
115.00000000000001
31
0
0
LINE
5
224
100
AcDbEntity
8
0
100
AcDbLine
10
280
20
75.000000000000014
30
0
11
280
21
85.000000000000014
31
0
0
LINE
5
225
100
AcDbEntity
8
0
100
AcDbLine
10
260
20
65.000000000000014
30
0
11
260
21
62.000000000000021
31
0
0
LINE
5
226
100
AcDbEntity
8
0
100
AcDbLine
10
280
20
95.000000000000014
30
0
11
280
21
105.00000000000001
31
0
0
LINE
5
227
100
AcDbEntity
8
0
100
AcDbLine
10
260
20
62.000000000000021
30
0
11
283
21
62.000000000000021
31
0
0
LINE
5
228
100
AcDbEntity
8
0
100
AcDbLine
10
170
20
115.00000000000001
30
0
11
190
21
115.00000000000001
31
0
0
LINE
5
229
100
AcDbEntity
8
0
100
AcDbLine
10
147
20
105.00000000000001
30
0
11
150
21
105.00000000000001
31
0
0
LINE
5
230
100
AcDbEntity
8
0
100
AcDbLine
10
150
20
75.000000000000014
30
0
11
150
21
85.000000000000014
31
0
0
LINE
5
231
100
AcDbEntity
8
0
100
AcDbLine
10
170
20
62.000000000000021
30
0
11
170
21
65.000000000000014
31
0
0
LINE
5
232
100
AcDbEntity
8
0
100
AcDbLine
10
147
20
118
30
0
11
147
21
105.00000000000001
31
0
0
LINE
5
233
100
AcDbEntity
8
0
100
AcDbLine
10
190
20
115.00000000000001
30
0
11
190
21
118
31
0
0
LINE
5
234
100
AcDbEntity
8
0
100
AcDbLine
10
147
20
118
30
0
11
170
21
118
31
0
0
LINE
5
235
100
AcDbEntity
8
0
100
AcDbLine
10
283
20
75.000000000000014
30
0
11
280
21
75.000000000000014
31
0
0
LINE
5
236
100
AcDbEntity
8
0
100
AcDbLine
10
283
20
85.000000000000014
30
0
11
283
21
95.000000000000014
31
0
0
LINE
5
237
100
AcDbEntity
8
0
100
AcDbLine
10
283
20
62.000000000000021
30
0
11
283
21
75.000000000000014
31
0
0
LINE
5
238
100
AcDbEntity
8
0
100
AcDbLine
10
260
20
118
30
0
11
283
21
118
31
0
0
LINE
5
239
100
AcDbEntity
8
0
100
AcDbLine
10
283
20
105.00000000000001
30
0
11
280
21
105.00000000000001
31
0
0
LINE
5
240
100
AcDbEntity
8
0
100
AcDbLine
10
260
20
115.00000000000001
30
0
11
240
21
115.00000000000001
31
0
0
LINE
5
241
100
AcDbEntity
8
0
100
AcDbLine
10
147
20
62.000000000000021
30
0
11
147
21
75.000000000000014
31
0
0
LINE
5
242
100
AcDbEntity
8
0
100
AcDbLine
10
190
20
118
30
0
11
240
21
118
31
0
0
LINE
5
243
100
AcDbEntity
8
0
100
AcDbLine
10
170
20
65.000000000000014
30
0
11
190
21
65.000000000000014
31
0
0
LINE
5
244
100
AcDbEntity
8
0
100
AcDbLine
10
147
20
75.000000000000014
30
0
11
150
21
75.000000000000014
31
0
0
LINE
5
245
100
AcDbEntity
8
0
100
AcDbLine
10
190
20
62.000000000000021
30
0
11
240
21
62.000000000000021
31
0
0
LINE
5
246
100
AcDbEntity
8
0
100
AcDbLine
10
170
20
118
30
0
11
170
21
115.00000000000001
31
0
0
LINE
5
247
100
AcDbEntity
8
0
100
AcDbLine
10
311.5
20
73
30
0
11
311.5
21
76
31
0
0
LINE
5
248
100
AcDbEntity
8
0
100
AcDbLine
10
291.5
20
23.000000000000014
30
0
11
288.5
21
23.000000000000021
31
0
0
LINE
5
249
100
AcDbEntity
8
0
100
AcDbLine
10
344.5
20
63.000000000000028
30
0
11
341.5
21
63.000000000000028
31
0
0
LINE
5
250
100
AcDbEntity
8
0
100
AcDbLine
10
301.5
20
76
30
0
11
311.5
21
76
31
0
0
LINE
5
251
100
AcDbEntity
8
0
100
AcDbLine
10
288.5
20
63.000000000000007
30
0
11
288.5
21
73
31
0
0
LINE
5
252
100
AcDbEntity
8
0
100
AcDbLine
10
344.5
20
73.000000000000028
30
0
11
344.5
21
63.000000000000028
31
0
0
LINE
5
253
100
AcDbEntity
8
0
100
AcDbLine
10
291.5
20
53.000000000000014
30
0
11
288.5
21
53.000000000000014
31
0
0
LINE
5
254
100
AcDbEntity
8
0
100
AcDbLine
10
341.5
20
13.000000000000025
30
0
11
341.5
21
23.000000000000021
31
0
0
LINE
5
255
100
AcDbEntity
8
0
100
AcDbLine
10
291.5
20
63.000000000000007
30
0
11
291.5
21
53.000000000000014
31
0
0
LINE
5
256
100
AcDbEntity
8
0
100
AcDbLine
10
344.5
20
53.000000000000028
30
0
11
341.5
21
53.000000000000028
31
0
0
LINE
5
257
100
AcDbEntity
8
0
100
AcDbLine
10
291.5
20
13.000000000000016
30
0
11
291.5
21
23.000000000000014
31
0
0
LINE
5
258
100
AcDbEntity
8
0
100
AcDbLine
10
344.5
20
73
30
0
11
331.5
21
73
31
0
0
LINE
5
259
100
AcDbEntity
8
0
100
AcDbLine
10
344.5
20
23.000000000000021
30
0
11
344.5
21
53.000000000000028
31
0
0
LINE
5
260
100
AcDbEntity
8
0
100
AcDbLine
10
288.5
20
73
30
0
11
301.5
21
73
31
0
0
LINE
5
261
100
AcDbEntity
8
0
100
AcDbLine
10
311.5
20
73
30
0
11
321.5
21
73
31
0
0
LINE
5
262
100
AcDbEntity
8
0
100
AcDbLine
10
301.5
20
73
30
0
11
301.5
21
76
31
0
0
LINE
5
263
100
AcDbEntity
8
0
100
AcDbLine
10
288.5
20
23.000000000000021
30
0
11
288.5
21
53.000000000000014
31
0
0
LINE
5
264
100
AcDbEntity
8
0
100
AcDbLine
10
291.5
20
63.000000000000007
30
0
11
288.5
21
63.000000000000007
31
0
0
LINE
5
265
100
AcDbEntity
8
0
100
AcDbLine
10
321.5
20
73
30
0
11
321.5
21
76
31
0
0
LINE
5
266
100
AcDbEntity
8
0
100
AcDbLine
10
331.5
20
73
30
0
11
331.5
21
76
31
0
0
LINE
5
267
100
AcDbEntity
8
0
100
AcDbLine
10
341.5
20
53.000000000000028
30
0
11
341.5
21
63.000000000000028
31
0
0
LINE
5
268
100
AcDbEntity
8
0
100
AcDbLine
10
344.5
20
23.000000000000021
30
0
11
341.5
21
23.000000000000021
31
0
0
LINE
5
269
100
AcDbEntity
8
0
100
AcDbLine
10
321.5
20
76
30
0
11
331.5
21
76
31
0
0
LINE
5
270
100
AcDbEntity
8
0
100
AcDbLine
10
344.5
20
13.000000000000025
30
0
11
341.5
21
13.000000000000025
31
0
0
LINE
5
271
100
AcDbEntity
8
0
100
AcDbLine
10
331.5
20
1.7763568394002505e-14
30
0
11
331.5
21
3.0000000000000249
31
0
0
LINE
5
272
100
AcDbEntity
8
0
100
AcDbLine
10
301.5
20
1.7763568394002505e-14
30
0
11
311.5
21
1.7763568394002505e-14
31
0
0
LINE
5
273
100
AcDbEntity
8
0
100
AcDbLine
10
301.5
20
1.7763568394002505e-14
30
0
11
301.5
21
3.000000000000016
31
0
0
LINE
5
274
100
AcDbEntity
8
0
100
AcDbLine
10
311.5
20
1.7763568394002505e-14
30
0
11
311.5
21
3.0000000000000249
31
0
0
LINE
5
275
100
AcDbEntity
8
0
100
AcDbLine
10
331.5
20
3.0000000000000249
30
0
11
344.5
21
3.0000000000000249
31
0
0
LINE
5
276
100
AcDbEntity
8
0
100
AcDbLine
10
288.5
20
3.000000000000016
30
0
11
288.5
21
13.000000000000016
31
0
0
LINE
5
277
100
AcDbEntity
8
0
100
AcDbLine
10
291.5
20
13.000000000000016
30
0
11
288.5
21
13.000000000000016
31
0
0
LINE
5
278
100
AcDbEntity
8
0
100
AcDbLine
10
288.5
20
3.0000000000000249
30
0
11
301.5
21
3.000000000000016
31
0
0
LINE
5
279
100
AcDbEntity
8
0
100
AcDbLine
10
344.5
20
3.0000000000000249
30
0
11
344.5
21
13.000000000000025
31
0
0
LINE
5
280
100
AcDbEntity
8
0
100
AcDbLine
10
321.5
20
1.7763568394002505e-14
30
0
11
321.5
21
3.000000000000016
31
0
0
LINE
5
281
100
AcDbEntity
8
0
100
AcDbLine
10
321.5
20
1.7763568394002505e-14
30
0
11
331.5
21
1.7763568394002505e-14
31
0
0
LINE
5
282
100
AcDbEntity
8
0
100
AcDbLine
10
341.5
20
135
30
3.3306690738754696e-15
11
341.5
21
145
31
3.3306690738754696e-15
0
LINE
5
283
100
AcDbEntity
8
0
100
AcDbLine
10
291.5
20
145
30
3.3306690738754696e-15
11
291.5
21
135
31
3.3306690738754696e-15
0
LINE
5
284
100
AcDbEntity
8
0
100
AcDbLine
10
288.5
20
155
30
3.3306690738754696e-15
11
288.5
21
145
31
3.3306690738754696e-15
0
LINE
5
285
100
AcDbEntity
8
0
100
AcDbLine
10
331.5
20
158
30
3.3306690738754696e-15
11
321.5
21
158
31
3.3306690738754696e-15
0
LINE
5
286
100
AcDbEntity
8
0
100
AcDbLine
10
288.5
20
145
30
3.3306690738754696e-15
11
291.5
21
145
31
3.3306690738754696e-15
0
LINE
5
287
100
AcDbEntity
8
0
100
AcDbLine
10
321.5
20
155
30
3.3306690738754696e-15
11
311.5
21
155
31
3.3306690738754696e-15
0
LINE
5
288
100
AcDbEntity
8
0
100
AcDbLine
10
344.5
20
145
30
3.3306690738754696e-15
11
344.5
21
155
31
3.3306690738754696e-15
0
LINE
5
289
100
AcDbEntity
8
0
100
AcDbLine
10
301.5
20
155
30
3.3306690738754696e-15
11
288.5
21
155
31
3.3306690738754696e-15
0
LINE
5
290
100
AcDbEntity
8
0
100
AcDbLine
10
311.5
20
155
30
3.3306690738754696e-15
11
311.5
21
158
31
3.3306690738754696e-15
0
LINE
5
291
100
AcDbEntity
8
0
100
AcDbLine
10
341.5
20
105
30
3.3306690738754696e-15
11
344.5
21
105
31
3.3306690738754696e-15
0
LINE
5
292
100
AcDbEntity
8
0
100
AcDbLine
10
301.5
20
85.000000000000014
30
3.3306690738754696e-15
11
301.5
21
82.000000000000028
31
3.3306690738754696e-15
0
LINE
5
293
100
AcDbEntity
8
0
100
AcDbLine
10
344.5
20
85
30
3.3306690738754696e-15
11
344.5
21
95
31
3.3306690738754696e-15
0
LINE
5
294
100
AcDbEntity
8
0
100
AcDbLine
10
291.5
20
135
30
3.3306690738754696e-15
11
288.5
21
135
31
3.3306690738754696e-15
0
LINE
5
295
100
AcDbEntity
8
0
100
AcDbLine
10
311.5
20
82.000000000000028
30
3.3306690738754696e-15
11
311.5
21
85.000000000000014
31
3.3306690738754696e-15
0
LINE
5
296
100
AcDbEntity
8
0
100
AcDbLine
10
344.5
20
105
30
3.3306690738754696e-15
11
344.5
21
135
31
3.3306690738754696e-15
0
LINE
5
297
100
AcDbEntity
8
0
100
AcDbLine
10
288.5
20
85.000000000000014
30
3.3306690738754696e-15
11
301.5
21
85.000000000000014
31
3.3306690738754696e-15
0
LINE
5
298
100
AcDbEntity
8
0
100
AcDbLine
10
344.5
20
85.000000000000014
30
0
11
344.5
21
95.000000000000014
31
0
0
LINE
5
299
100
AcDbEntity
8
0
100
AcDbLine
10
341.5
20
95
30
3.3306690738754696e-15
11
341.5
21
105
31
3.3306690738754696e-15
0
LINE
5
300
100
AcDbEntity
8
0
100
AcDbLine
10
344.5
20
85.000000000000014
30
0
11
331.5
21
85.000000000000014
31
0
0
LINE
5
301
100
AcDbEntity
8
0
100
AcDbLine
10
321.5
20
82.000000000000028
30
3.3306690738754696e-15
11
331.5
21
82.000000000000028
31
3.3306690738754696e-15
0
LINE
5
302
100
AcDbEntity
8
0
100
AcDbLine
10
321.5
20
85.000000000000014
30
3.3306690738754696e-15
11
321.5
21
82.000000000000028
31
3.3306690738754696e-15
0
LINE
5
303
100
AcDbEntity
8
0
100
AcDbLine
10
301.5
20
82.000000000000028
30
3.3306690738754696e-15
11
311.5
21
82.000000000000028
31
3.3306690738754696e-15
0
LINE
5
304
100
AcDbEntity
8
0
100
AcDbLine
10
291.5
20
95.000000000000014
30
3.3306690738754696e-15
11
288.5
21
95.000000000000014
31
3.3306690738754696e-15
0
LINE
5
305
100
AcDbEntity
8
0
100
AcDbLine
10
344.5
20
95
30
3.3306690738754696e-15
11
341.5
21
95
31
3.3306690738754696e-15
0
LINE
5
306
100
AcDbEntity
8
0
100
AcDbLine
10
288.5
20
95.000000000000014
30
3.3306690738754696e-15
11
288.5
21
85.000000000000014
31
3.3306690738754696e-15
0
LINE
5
307
100
AcDbEntity
8
0
100
AcDbLine
10
288.5
20
135
30
3.3306690738754696e-15
11
288.5
21
105
31
3.3306690738754696e-15
0
LINE
5
308
100
AcDbEntity
8
0
100
AcDbLine
10
291.5
20
105
30
3.3306690738754696e-15
11
291.5
21
95.000000000000014
31
3.3306690738754696e-15
0
LINE
5
309
100
AcDbEntity
8
0
100
AcDbLine
10
311.5
20
85.000000000000014
30
3.3306690738754696e-15
11
321.5
21
85.000000000000014
31
3.3306690738754696e-15
0
LINE
5
310
100
AcDbEntity
8
0
100
AcDbLine
10
331.5
20
85.000000000000014
30
3.3306690738754696e-15
11
344.5
21
85
31
3.3306690738754696e-15
0
LINE
5
311
100
AcDbEntity
8
0
100
AcDbLine
10
288.5
20
105
30
3.3306690738754696e-15
11
291.5
21
105
31
3.3306690738754696e-15
0
LINE
5
312
100
AcDbEntity
8
0
100
AcDbLine
10
344.5
20
135
30
3.3306690738754696e-15
11
341.5
21
135
31
3.3306690738754696e-15
0
LINE
5
313
100
AcDbEntity
8
0
100
AcDbLine
10
331.5
20
82.000000000000028
30
3.3306690738754696e-15
11
331.5
21
85.000000000000014
31
3.3306690738754696e-15
0
LINE
5
314
100
AcDbEntity
8
0
100
AcDbLine
10
321.5
20
158
30
3.3306690738754696e-15
11
321.5
21
155
31
3.3306690738754696e-15
0
LINE
5
315
100
AcDbEntity
8
0
100
AcDbLine
10
311.5
20
158
30
3.3306690738754696e-15
11
301.5
21
158
31
3.3306690738754696e-15
0
LINE
5
316
100
AcDbEntity
8
0
100
AcDbLine
10
341.5
20
145
30
3.3306690738754696e-15
11
344.5
21
145
31
3.3306690738754696e-15
0
LINE
5
317
100
AcDbEntity
8
0
100
AcDbLine
10
344.5
20
155
30
3.3306690738754696e-15
11
331.5
21
155
31
3.3306690738754696e-15
0
LINE
5
318
100
AcDbEntity
8
0
100
AcDbLine
10
331.5
20
155
30
3.3306690738754696e-15
11
331.5
21
158
31
3.3306690738754696e-15
0
LINE
5
319
100
AcDbEntity
8
0
100
AcDbLine
10
301.5
20
158
30
3.3306690738754696e-15
11
301.5
21
155
31
3.3306690738754696e-15
0
LINE
5
320
100
AcDbEntity
8
0
100
AcDbLine
10
311.5
20
3.0000000000000249
30
0
11
321.5
21
3.000000000000016
31
0
0
LINE
5
321
100
AcDbEntity
8
0
100
AcDbLine
10
128
20
85
30
0
11
128
21
94
31
0
0
LINE
5
322
100
AcDbEntity
8
0
100
AcDbLine
10
128
20
94
30
0
11
115
21
94
31
0
0
LINE
5
323
100
AcDbEntity
8
0
100
AcDbLine
10
115
20
94
30
0
11
115
21
82
31
0
0
ENDSEC
0
SECTION
2
OBJECTS
0
DICTIONARY
5
C
100
AcDbDictionary
3
ACAD_GROUP
350
D
3
ACAD_MLINESTYLE
350
17
0
DICTIONARY
5
D
100
AcDbDictionary
0
DICTIONARY
5
1A
330
C
100
AcDbDictionary
0
DICTIONARY
5
17
100
AcDbDictionary
0
ENDSEC
0
EOF
